<svg width="883" height="814" viewBox="0 0 883 814" fill="none" xmlns="http://www.w3.org/2000/svg">
<g filter="url(#filter0_f_1_7)">
<path d="M833 340C833 452.989 742.931 500.839 647.237 563C583.196 604.6 529.079 764 443.497 764C357.916 764 336.757 650.6 272.716 609C177.022 546.839 50 484.489 50 371.5C50 288.857 145.516 223.071 200.807 164C271.7 88.2603 316.579 30 436.506 30C522.088 30 566.218 138.4 630.259 180C725.953 242.161 833 227.011 833 340Z" fill="url(#paint0_linear_1_7)"/>
</g>
<g filter="url(#filter1_f_1_7)">
<path d="M827.508 339.222C827.508 460.117 799.125 540.203 695.266 606.714C625.76 651.226 564.54 764 471.655 764C378.771 764 263.671 645.876 194.165 601.364C90.3056 534.854 50 499.706 50 378.81C50 290.385 111.393 285.799 171.402 222.595C248.345 141.555 320.133 30 450.294 30C543.178 30 688.629 30.4275 758.135 74.9388C861.994 141.45 827.508 218.326 827.508 339.222Z" fill="url(#paint1_linear_1_7)"/>
</g>
<g filter="url(#filter2_f_1_7)">
<path d="M833 427.77C833 566.421 652.068 450.887 555.317 527.166C490.569 578.215 445.951 764 359.425 764C272.898 764 320.169 557.354 255.42 506.306C158.669 430.026 122.132 465.797 122.132 327.146C122.132 225.734 9.68397 162.8 65.5858 90.3129C137.262 -2.62859 331.07 44.9095 452.322 44.9095C538.849 44.9095 648.09 4.90493 712.839 55.9536C809.59 132.233 833 289.119 833 427.77Z" fill="url(#paint2_linear_1_7)"/>
</g>
<g filter="url(#filter3_f_1_7)">
<path d="M728.181 465.139C728.181 602.968 779.95 633.28 687.779 709.107C626.095 759.853 466.231 764 383.8 764C301.369 764 347.364 595.175 285.68 544.429C193.509 468.602 50 479.764 50 341.936C50 241.125 115.065 148.068 168.321 76.0108C236.604 -16.3795 449.135 58.9331 564.648 58.9331C647.079 58.9331 743.873 142.369 805.556 193.115C897.727 268.942 728.181 327.311 728.181 465.139Z" fill="url(#paint3_linear_1_7)"/>
</g>
<defs>
<filter id="filter0_f_1_7" x="0" y="-20" width="883" height="834" filterUnits="userSpaceOnUse" color-interpolation-filters="sRGB">
<feFlood flood-opacity="0" result="BackgroundImageFix"/>
<feBlend mode="normal" in="SourceGraphic" in2="BackgroundImageFix" result="shape"/>
<feGaussianBlur stdDeviation="25" result="effect1_foregroundBlur_1_7"/>
</filter>
<filter id="filter1_f_1_7" x="0" y="-20" width="883" height="834" filterUnits="userSpaceOnUse" color-interpolation-filters="sRGB">
<feFlood flood-opacity="0" result="BackgroundImageFix"/>
<feBlend mode="normal" in="SourceGraphic" in2="BackgroundImageFix" result="shape"/>
<feGaussianBlur stdDeviation="25" result="effect1_foregroundBlur_1_7"/>
</filter>
<filter id="filter2_f_1_7" x="3.8147e-05" y="-20" width="883" height="834" filterUnits="userSpaceOnUse" color-interpolation-filters="sRGB">
<feFlood flood-opacity="0" result="BackgroundImageFix"/>
<feBlend mode="normal" in="SourceGraphic" in2="BackgroundImageFix" result="shape"/>
<feGaussianBlur stdDeviation="25" result="effect1_foregroundBlur_1_7"/>
</filter>
<filter id="filter3_f_1_7" x="0" y="-20" width="883" height="834" filterUnits="userSpaceOnUse" color-interpolation-filters="sRGB">
<feFlood flood-opacity="0" result="BackgroundImageFix"/>
<feBlend mode="normal" in="SourceGraphic" in2="BackgroundImageFix" result="shape"/>
<feGaussianBlur stdDeviation="25" result="effect1_foregroundBlur_1_7"/>
</filter>
<linearGradient id="paint0_linear_1_7" x1="194.815" y1="159.705" x2="504.977" y2="638.344" gradientUnits="userSpaceOnUse">
<stop stop-color="#E7AC86"/>
<stop offset="1" stop-color="#ED4C6D" stop-opacity="0.92"/>
</linearGradient>
<linearGradient id="paint1_linear_1_7" x1="2.84805" y1="166.64" x2="332.758" y2="683.062" gradientUnits="userSpaceOnUse">
<stop stop-color="#E7AC86"/>
<stop offset="1" stop-color="#ED4C6D" stop-opacity="0.92"/>
</linearGradient>
<linearGradient id="paint2_linear_1_7" x1="-76.285" y1="81.3607" x2="328.962" y2="596.617" gradientUnits="userSpaceOnUse">
<stop stop-color="#E7AC86"/>
<stop offset="1" stop-color="#ED4C6D" stop-opacity="0.92"/>
</linearGradient>
<linearGradient id="paint3_linear_1_7" x1="-60.6874" y1="162.442" x2="345.865" y2="657.829" gradientUnits="userSpaceOnUse">
<stop stop-color="#E7AC86"/>
<stop offset="1" stop-color="#ED4C6D" stop-opacity="0.92"/>
</linearGradient>
</defs>
</svg>
